<?xml version="1.0" encoding="iso-8859-1"?>
<!-- Uploaded to: SVG Repo, www.svgrepo.com, Generator: SVG Repo Mixer Tools -->
<svg height="800px" width="800px" version="1.1" id="Layer_1" xmlns="http://www.w3.org/2000/svg" xmlns:xlink="http://www.w3.org/1999/xlink" 
	 viewBox="0 0 512 512" xml:space="preserve">
<path style="fill:#E7ECED;" d="M256,209.978c25.427,0,46.022,20.595,46.022,46.022S281.427,302.022,256,302.022
	S209.978,281.427,209.978,256S230.573,209.978,256,209.978z"/>
<path style="fill:#7E8488;" d="M256,152.449c57.183,0,103.551,46.368,103.551,103.551S313.183,359.551,256,359.551
	S152.449,313.183,152.449,256S198.817,152.449,256,152.449z M302.022,256c0-25.427-20.595-46.022-46.022-46.022
	S209.978,230.573,209.978,256s20.595,46.022,46.022,46.022S302.022,281.427,302.022,256z"/>
<path style="fill:#00B4D7;" d="M503.371,302.022v-92.045h-45.562c-5.293-23.126-14.382-44.642-26.578-64.086l32.216-32.216
	l-65.122-65.122l-32.216,32.216c-19.444-12.196-40.96-21.285-64.086-26.578V8.629h-92.045v45.562
	c-23.126,5.293-44.642,14.382-64.086,26.578l-32.216-32.216l-65.122,65.122l32.216,32.216
	c-12.196,19.444-21.285,40.96-26.578,64.086H8.629v92.045h45.562c5.293,23.126,14.382,44.642,26.578,64.086l-32.216,32.216
	l65.122,65.122l32.216-32.216c19.444,12.196,40.96,21.285,64.086,26.578v45.562h92.045v-45.562
	c23.126-5.293,44.642-14.382,64.086-26.578l32.216,32.216l65.122-65.122l-32.216-32.216c12.196-19.444,21.285-40.96,26.578-64.086
	H503.371z M256,359.551c-57.183,0-103.551-46.368-103.551-103.551S198.817,152.449,256,152.449S359.551,198.817,359.551,256
	S313.183,359.551,256,359.551z"/>
<path style="fill:#9EA5AA;" d="M190.135,176.098c-10.228,8.442-18.809,18.809-25.186,30.547
	c-4.782,8.803-8.327,18.377-10.395,28.488c-1.38,6.74-2.104,13.719-2.104,20.868c0,57.183,46.368,103.551,103.551,103.551v-57.528
	c-25.427,0-46.022-20.595-46.022-46.022s20.595-46.022,46.022-46.022v-57.528c-17.869,0-34.683,4.529-49.356,12.5
	C200.776,168.137,195.249,171.877,190.135,176.098z"/>
<path style="fill:#00ABD5;" d="M152.449,256c0-7.148,0.724-14.127,2.104-20.868c2.069-10.111,5.614-19.685,10.395-28.488
	c6.378-11.738,14.957-22.106,25.186-30.547c5.114-4.221,10.642-7.961,16.509-11.149c14.673-7.971,31.486-12.5,49.356-12.5V8.629
	h-46.022v45.562c-23.126,5.293-44.642,14.382-64.086,26.578l-32.216-32.216l-65.122,65.122l32.216,32.216
	c-12.196,19.444-21.285,40.96-26.578,64.086H8.629v92.045h45.562c5.293,23.126,14.382,44.642,26.578,64.086l-32.216,32.216
	l65.122,65.122l32.216-32.216c19.444,12.196,40.96,21.285,64.086,26.578v45.562H256v-143.82
	C198.817,359.551,152.449,313.183,152.449,256z"/>
<path d="M310.652,512H201.348v-47.427c-18.965-4.983-37.123-12.515-54.14-22.458l-33.533,33.534l-77.325-77.325l33.534-33.534
	c-9.943-17.017-17.475-35.174-22.458-54.14H0V201.347h47.427c4.983-18.965,12.515-37.123,22.458-54.14l-33.534-33.532l77.325-77.325
	l33.534,33.534c17.017-9.943,35.174-17.475,54.14-22.458V0h109.303v47.427c18.965,4.983,37.123,12.515,54.14,22.458l33.532-33.534
	l77.325,77.325l-33.534,33.534c9.943,17.017,17.475,35.174,22.458,54.14H512v109.303h-47.427
	c-4.983,18.965-12.515,37.123-22.458,54.14l33.534,33.534l-77.325,77.322l-33.534-33.534c-17.017,9.943-35.174,17.475-54.14,22.458
	V512H310.652z M218.607,494.742h74.786V450.93l6.704-1.534c21.74-4.975,42.406-13.547,61.427-25.477l5.825-3.653l30.975,30.975
	l52.918-52.918l-30.975-30.975l3.653-5.825c11.93-19.021,20.501-39.687,25.477-61.427l1.534-6.704h43.81v-74.786H450.93
	l-1.534-6.704c-4.975-21.74-13.547-42.406-25.477-61.427l-3.653-5.825l30.975-30.973l-52.918-52.918l-30.975,30.975l-5.825-3.653
	c-19.021-11.93-39.687-20.501-61.427-25.477l-6.703-1.534V17.258h-74.786V61.07l-6.704,1.534
	c-21.74,4.975-42.406,13.547-61.427,25.477l-5.825,3.653l-30.974-30.975l-52.918,52.918l30.975,30.975l-3.653,5.825
	c-11.93,19.021-20.501,39.687-25.477,61.427l-1.534,6.703H17.258v74.786H61.07l1.534,6.704c4.975,21.74,13.547,42.406,25.477,61.427
	l3.653,5.825l-30.975,30.974l52.918,52.918l30.975-30.975l5.825,3.653c19.021,11.93,39.687,20.501,61.427,25.477l6.704,1.534v43.811
	H218.607z"/>
<path d="M256,368.18c-61.856,0-112.18-50.323-112.18-112.18S194.144,143.82,256,143.82S368.18,194.144,368.18,256
	S317.857,368.18,256,368.18z M256,161.079c-52.34,0-94.921,42.581-94.921,94.921S203.66,350.921,256,350.921
	S350.921,308.34,350.921,256S308.34,161.079,256,161.079z"/>
<path d="M256,310.652c-30.134,0-54.652-24.517-54.652-54.652s24.517-54.652,54.652-54.652s54.652,24.517,54.652,54.652
	S286.134,310.652,256,310.652z M256,218.607c-20.618,0-37.393,16.775-37.393,37.393s16.775,37.393,37.393,37.393
	s37.393-16.775,37.393-37.393S276.618,218.607,256,218.607z"/>
<g>
	<path style="fill:#FFFFFF;" d="M103.551,250.247H86.292c0-93.577,76.13-169.708,169.708-169.708v17.258
		C171.939,97.798,103.551,166.186,103.551,250.247z"/>
	<path style="fill:#FFFFFF;" d="M256,419.955v-17.258c84.061,0,152.449-68.388,152.449-152.449h17.258
		C425.708,343.825,349.577,419.955,256,419.955z"/>
</g>
</svg>